<mxfile host="app.diagrams.net" modified="2023-11-21T22:33:49.913Z" agent="Mozilla/5.0 (Windows NT 10.0; Win64; x64) AppleWebKit/537.36 (KHTML, like Gecko) Chrome/119.0.0.0 Safari/537.36" etag="WMvvYwEqTAW9nRX2hdKg" version="22.1.3" type="github">
  <diagram name="Página-1" id="AiLEBq430D1O8LsS42Yc">
    <mxGraphModel dx="1434" dy="750" grid="1" gridSize="10" guides="1" tooltips="1" connect="1" arrows="1" fold="1" page="1" pageScale="1" pageWidth="827" pageHeight="1169" math="0" shadow="0">
      <root>
        <mxCell id="0" />
        <mxCell id="1" parent="0" />
        <mxCell id="9Nb8sZ4_BTR4iNPmc8ov-2" value="&lt;div&gt;Cada casino tiene un nombre único y una dirección, dispone de varias mesas y en cada una un&amp;nbsp;&lt;span style=&quot;background-color: initial;&quot;&gt;tipo de juego (por ejemplo 2 ruletas, 1 poker y otros tipos de juegos).&lt;/span&gt;&lt;/div&gt;&lt;div&gt;&lt;span style=&quot;background-color: initial;&quot;&gt;&lt;br&gt;&lt;/span&gt;&lt;/div&gt;&lt;div&gt;Contabilizamos las pérdidas o ganancias totales por cada mesa en cada casino.&lt;/div&gt;&lt;div&gt;&lt;br&gt;&lt;/div&gt;&lt;div&gt;Las ruletas son de varios fabricantes, me gustaría saber si en general gano más dinero con un&lt;/div&gt;&lt;div&gt;fabricante o con otro.&lt;/div&gt;" style="text;html=1;strokeColor=none;fillColor=none;align=left;verticalAlign=middle;whiteSpace=wrap;rounded=0;fontFamily=Verdana;fontSize=13;" vertex="1" parent="1">
          <mxGeometry x="34" y="40" width="760" height="110" as="geometry" />
        </mxCell>
      </root>
    </mxGraphModel>
  </diagram>
</mxfile>
